<svg width="20" height="20" viewBox="0 0 20 20" fill="none" xmlns="http://www.w3.org/2000/svg">
<path fill-rule="evenodd" clip-rule="evenodd" d="M11.2193 0.607955C10.6071 -0.199478 9.39325 -0.199478 8.78101 0.607955L7.40698 2.42007C7.18864 2.70802 6.83193 2.85577 6.47393 2.80655L4.22099 2.49678C3.21713 2.35876 2.35882 3.21707 2.49684 4.22092L2.80661 6.47387C2.85583 6.83187 2.70808 7.18858 2.42013 7.40692L0.608016 8.78095C-0.199417 9.39319 -0.199417 10.607 0.608016 11.2193L2.42013 12.5933C2.70808 12.8116 2.85583 13.1683 2.80661 13.5263L2.49684 15.7793C2.35882 16.7831 3.21713 17.6415 4.22098 17.5034L6.47393 17.1937C6.83193 17.1444 7.18864 17.2922 7.40698 17.5801L8.78101 19.3923C9.39325 20.1997 10.6071 20.1997 11.2193 19.3923L12.5934 17.5801C12.8117 17.2922 13.1684 17.1444 13.5264 17.1937L15.7794 17.5034C16.7832 17.6415 17.6415 16.7831 17.5035 15.7793L17.1937 13.5263C17.1445 13.1683 17.2923 12.8116 17.5802 12.5933L19.3923 11.2193C20.1998 10.607 20.1998 9.39319 19.3923 8.78095L17.5802 7.40692C17.2923 7.18858 17.1445 6.83187 17.1937 6.47387L17.5035 4.22092C17.6415 3.21707 16.7832 2.35876 15.7794 2.49678L13.5264 2.80655C13.1684 2.85577 12.8117 2.70802 12.5934 2.42007L11.2193 0.607955ZM12.7072 7.2929C12.3166 6.90237 11.6835 6.90237 11.293 7.2929L7.29296 11.2929C6.90243 11.6834 6.90243 12.3166 7.29296 12.7071C7.68348 13.0976 8.31664 13.0976 8.70717 12.7071L12.7072 8.70711C13.0977 8.31658 13.0977 7.68342 12.7072 7.2929ZM8.00006 9C7.44778 9 7.00006 8.55229 7.00006 8C7.00006 7.44772 7.44778 7 8.00006 7C8.55235 7 9.00006 7.44772 9.00006 8C9.00006 8.55229 8.55235 9 8.00006 9ZM12.0001 13C12.5523 13 13.0001 12.5523 13.0001 12C13.0001 11.4477 12.5523 11 12.0001 11C11.4478 11 11.0001 11.4477 11.0001 12C11.0001 12.5523 11.4478 13 12.0001 13Z" fill="#323232"/>
</svg>
